<svg id="Layer_1" data-name="Layer 1" xmlns="http://www.w3.org/2000/svg" viewBox="0 0 401 521"><defs><style>.cls-1,.cls-3,.cls-4{fill:#fff;}.cls-1,.cls-2,.cls-3{stroke:#000;stroke-miterlimit:10;}.cls-1{stroke-linecap:round;stroke-width:40px;}</style></defs><title>opened</title><path class="cls-1" d="M733.9,366.85c27.48-41.31,67.59-67.35,112.27-67.35,82.84,0,150,89.54,150,200s-67.16,200-150,200c-68.72,0-126.65-61.61-144.4-145.67" transform="translate(-646.17 -279.5)"/><path class="cls-1" d="M733.9,366.85" transform="translate(-646.17 -279.5)"/><path class="cls-2" d="M646.67,530a30,30,0,0,1,30-30h340a30,30,0,0,1,30,30V770a30,30,0,0,1-30,30h-340a30,30,0,0,1-30-30" transform="translate(-646.17 -279.5)"/><path class="cls-3" d="M837.26,620,784.5,735.86A10,10,0,0,0,793.61,750H899.13a10,10,0,0,0,9.1-14.14L855.47,620A10,10,0,0,0,837.26,620Z" transform="translate(-646.17 -279.5)"/><circle class="cls-4" cx="200.5" cy="320.5" r="50"/></svg>
